<svg xmlns="http://www.w3.org/2000/svg" xmlns:xlink="http://www.w3.org/1999/xlink" width="500" zoomAndPan="magnify" viewBox="0 0 375 299.999988" height="400" preserveAspectRatio="xMidYMid meet" version="1.0"><defs><clipPath id="29d4c23004"><path d="M 41 8.9375 L 329 8.9375 L 329 253 L 41 253 Z M 41 8.9375 " clip-rule="nonzero"/></clipPath><clipPath id="8cfaa9e4ca"><path d="M 153 180 L 186 180 L 186 290.9375 L 153 290.9375 Z M 153 180 " clip-rule="nonzero"/></clipPath><clipPath id="a7c8c4c35f"><path d="M 212 180 L 244 180 L 244 290.9375 L 212 290.9375 Z M 212 180 " clip-rule="nonzero"/></clipPath></defs><path fill="#ffffff" d="M 141.082031 145.386719 C 141.507812 145.226562 141.980469 145.015625 142.351562 144.804688 C 145.042969 143.75 147.789062 142.796875 150.589844 142.007812 C 150.800781 141.953125 151.011719 141.902344 151.222656 141.847656 C 151.222656 141.847656 151.273438 141.847656 151.273438 141.847656 C 151.328125 141.847656 151.328125 141.847656 151.382812 141.796875 C 151.433594 141.796875 151.433594 141.796875 151.488281 141.796875 C 154.917969 140.84375 158.402344 140.160156 161.890625 139.628906 C 169.335938 138.734375 176.886719 138.734375 184.332031 139.628906 C 189.402344 140.371094 194.417969 141.585938 199.277344 143.222656 C 201.230469 143.855469 203.605469 143.433594 205.402344 142.429688 C 207.195312 141.371094 208.515625 139.683594 209.042969 137.675781 C 209.625 135.617188 209.308594 133.398438 208.253906 131.550781 C 207.195312 129.703125 205.507812 128.59375 203.5 127.90625 C 199.117188 126.429688 194.628906 125.320312 190.085938 124.582031 C 184.648438 123.683594 179.15625 123.15625 173.664062 123.101562 C 168.648438 123.050781 163.738281 123.523438 158.773438 124.210938 C 155.078125 124.738281 151.382812 125.425781 147.738281 126.429688 C 147.683594 126.429688 147.632812 126.480469 147.527344 126.480469 C 147.316406 126.535156 147.050781 126.585938 146.839844 126.691406 C 146.785156 126.691406 146.734375 126.746094 146.628906 126.746094 C 146.628906 126.746094 146.628906 126.746094 146.574219 126.746094 C 146.523438 126.746094 146.46875 126.746094 146.46875 126.796875 C 146.363281 126.796875 146.3125 126.851562 146.207031 126.851562 C 146.152344 126.851562 146.101562 126.851562 146.101562 126.902344 C 146.046875 126.902344 145.941406 126.957031 145.890625 126.957031 C 142.773438 127.855469 139.761719 129.015625 136.753906 130.230469 C 136.066406 130.390625 135.433594 130.707031 134.800781 131.023438 C 134.695312 131.074219 134.589844 131.128906 134.484375 131.179688 C 134.113281 131.339844 133.742188 131.5 133.375 131.65625 C 132.847656 132.078125 132.316406 132.5 131.789062 132.871094 C 130.785156 133.875 130.152344 135.035156 129.730469 136.355469 C 129.148438 138.414062 129.464844 140.632812 130.523438 142.480469 C 131.578125 144.277344 133.269531 145.597656 135.273438 146.125 C 135.960938 146.230469 136.699219 146.335938 137.386719 146.390625 C 138.65625 146.335938 139.921875 146.019531 141.082031 145.386719 Z M 142.773438 144.648438 C 142.828125 144.648438 142.878906 144.59375 142.878906 144.59375 C 142.878906 144.59375 142.828125 144.59375 142.773438 144.648438 Z M 142.773438 144.648438 " fill-opacity="1" fill-rule="nonzero"/><path fill="#ffffff" d="M 214.746094 151.40625 C 214.746094 149.875 214.851562 148.34375 215.011719 146.8125 C 215.59375 143.328125 216.492188 139.945312 217.808594 136.726562 C 218.550781 135.089844 219.394531 133.453125 220.292969 131.867188 C 222.457031 128.117188 221.191406 123.207031 217.441406 121.042969 C 213.746094 118.878906 208.78125 120.144531 206.617188 123.894531 C 204.34375 127.800781 202.550781 131.972656 201.230469 136.25 C 200.597656 138.363281 200.121094 140.527344 199.75 142.691406 C 199.277344 145.597656 198.957031 148.5 198.90625 151.40625 C 198.851562 155.734375 202.550781 159.328125 206.828125 159.328125 C 211.15625 159.328125 214.640625 155.734375 214.746094 151.40625 Z M 214.746094 151.40625 " fill-opacity="1" fill-rule="nonzero"/><g clip-path="url(#29d4c23004)"><path fill="#f1a1e7" d="M 328.542969 130.917969 C 328.542969 132.914062 328.488281 134.910156 328.371094 136.902344 C 328.257812 138.898438 328.082031 140.886719 327.855469 142.875 C 327.625 144.859375 327.335938 146.839844 326.992188 148.816406 C 326.648438 150.789062 326.246094 152.757812 325.789062 154.714844 C 325.332031 156.671875 324.816406 158.621094 324.246094 160.554688 C 323.675781 162.492188 323.050781 164.417969 322.371094 166.328125 C 321.691406 168.238281 320.953125 170.132812 320.164062 172.011719 C 319.371094 173.890625 318.527344 175.753906 317.628906 177.597656 C 316.734375 179.441406 315.78125 181.265625 314.777344 183.070312 C 313.777344 184.875 312.722656 186.65625 311.617188 188.417969 C 310.507812 190.179688 309.351562 191.914062 308.148438 193.628906 C 306.941406 195.339844 305.6875 197.027344 304.382812 198.6875 C 303.078125 200.347656 301.726562 201.976562 300.332031 203.582031 C 298.933594 205.183594 297.488281 206.757812 296 208.300781 C 294.511719 209.84375 292.980469 211.355469 291.40625 212.835938 C 289.828125 214.3125 288.210938 215.757812 286.550781 217.171875 C 284.894531 218.582031 283.195312 219.957031 281.457031 221.300781 C 279.71875 222.640625 277.941406 223.945312 276.128906 225.210938 C 274.3125 226.476562 272.464844 227.703125 270.582031 228.894531 C 268.695312 230.082031 266.777344 231.230469 264.828125 232.339844 C 262.875 233.449219 260.894531 234.519531 258.882812 235.542969 C 256.871094 236.570312 254.828125 237.554688 252.757812 238.496094 C 250.691406 239.4375 248.59375 240.332031 246.472656 241.1875 C 244.351562 242.039062 242.207031 242.847656 240.039062 243.613281 C 237.875 244.378906 235.683594 245.09375 233.476562 245.769531 C 231.265625 246.441406 229.039062 247.066406 226.792969 247.644531 C 224.546875 248.226562 222.289062 248.757812 220.011719 249.242188 C 217.734375 249.726562 215.449219 250.164062 213.144531 250.554688 C 210.84375 250.945312 208.535156 251.285156 206.210938 251.578125 C 203.890625 251.871094 201.5625 252.117188 199.230469 252.3125 C 196.894531 252.507812 194.554688 252.652344 192.210938 252.75 C 189.867188 252.847656 187.523438 252.898438 185.175781 252.898438 C 182.832031 252.898438 180.484375 252.847656 178.140625 252.75 C 175.796875 252.652344 173.460938 252.507812 171.125 252.3125 C 168.789062 252.117188 166.460938 251.871094 164.140625 251.578125 C 161.820312 251.285156 159.507812 250.945312 157.207031 250.554688 C 154.90625 250.164062 152.617188 249.726562 150.339844 249.242188 C 148.066406 248.757812 145.804688 248.226562 143.558594 247.644531 C 141.3125 247.066406 139.085938 246.441406 136.878906 245.769531 C 134.667969 245.09375 132.480469 244.378906 130.3125 243.613281 C 128.144531 242.847656 126 242.039062 123.878906 241.1875 C 121.757812 240.332031 119.664062 239.4375 117.59375 238.496094 C 115.523438 237.554688 113.484375 236.570312 111.472656 235.542969 C 109.457031 234.519531 107.476562 233.449219 105.527344 232.339844 C 103.574219 231.230469 101.65625 230.082031 99.773438 228.894531 C 97.886719 227.703125 96.039062 226.476562 94.226562 225.210938 C 92.410156 223.945312 90.636719 222.640625 88.898438 221.300781 C 87.160156 219.957031 85.460938 218.582031 83.800781 217.171875 C 82.140625 215.757812 80.523438 214.3125 78.949219 212.835938 C 77.371094 211.355469 75.839844 209.84375 74.351562 208.300781 C 72.863281 206.757812 71.421875 205.183594 70.023438 203.582031 C 68.625 201.976562 67.273438 200.347656 65.972656 198.6875 C 64.667969 197.027344 63.414062 195.339844 62.207031 193.628906 C 61 191.914062 59.84375 190.179688 58.738281 188.417969 C 57.632812 186.65625 56.578125 184.875 55.574219 183.070312 C 54.570312 181.265625 53.621094 179.441406 52.722656 177.597656 C 51.824219 175.753906 50.980469 173.890625 50.191406 172.011719 C 49.398438 170.132812 48.664062 168.238281 47.984375 166.328125 C 47.300781 164.417969 46.675781 162.492188 46.105469 160.554688 C 45.535156 158.621094 45.023438 156.671875 44.5625 154.714844 C 44.105469 152.757812 43.707031 150.789062 43.359375 148.816406 C 43.015625 146.839844 42.730469 144.859375 42.5 142.875 C 42.269531 140.886719 42.097656 138.898438 41.980469 136.902344 C 41.867188 134.910156 41.808594 132.914062 41.808594 130.917969 C 41.808594 128.921875 41.867188 126.925781 41.980469 124.933594 C 42.097656 122.9375 42.269531 120.949219 42.5 118.960938 C 42.730469 116.972656 43.015625 114.992188 43.359375 113.019531 C 43.707031 111.042969 44.105469 109.078125 44.5625 107.121094 C 45.023438 105.160156 45.535156 103.214844 46.105469 101.277344 C 46.675781 99.339844 47.300781 97.417969 47.984375 95.507812 C 48.664062 93.597656 49.398438 91.703125 50.191406 89.824219 C 50.980469 87.945312 51.824219 86.082031 52.722656 84.238281 C 53.621094 82.394531 54.570312 80.566406 55.574219 78.761719 C 56.578125 76.957031 57.632812 75.175781 58.738281 73.414062 C 59.84375 71.65625 61 69.917969 62.207031 68.207031 C 63.414062 66.492188 64.667969 64.808594 65.972656 63.148438 C 67.273438 61.488281 68.625 59.855469 70.023438 58.253906 C 71.421875 56.648438 72.863281 55.078125 74.351562 53.535156 C 75.839844 51.988281 77.371094 50.480469 78.949219 49 C 80.523438 47.519531 82.140625 46.074219 83.800781 44.664062 C 85.460938 43.253906 87.160156 41.875 88.898438 40.535156 C 90.636719 39.195312 92.410156 37.890625 94.226562 36.625 C 96.039062 35.359375 97.886719 34.128906 99.773438 32.941406 C 101.65625 31.75 103.574219 30.601562 105.527344 29.492188 C 107.476562 28.382812 109.457031 27.316406 111.472656 26.289062 C 113.484375 25.265625 115.523438 24.28125 117.59375 23.339844 C 119.664062 22.398438 121.757812 21.5 123.878906 20.648438 C 126 19.792969 128.144531 18.984375 130.3125 18.222656 C 132.480469 17.457031 134.667969 16.738281 136.878906 16.066406 C 139.085938 15.394531 141.3125 14.769531 143.558594 14.1875 C 145.804688 13.609375 148.066406 13.078125 150.339844 12.589844 C 152.617188 12.105469 154.90625 11.667969 157.207031 11.28125 C 159.507812 10.890625 161.820312 10.550781 164.140625 10.257812 C 166.460938 9.964844 168.789062 9.71875 171.125 9.523438 C 173.460938 9.328125 175.796875 9.179688 178.140625 9.082031 C 180.484375 8.984375 182.832031 8.9375 185.175781 8.9375 C 187.523438 8.9375 189.867188 8.984375 192.210938 9.082031 C 194.554688 9.179688 196.894531 9.328125 199.230469 9.523438 C 201.5625 9.71875 203.890625 9.964844 206.210938 10.257812 C 208.535156 10.550781 210.84375 10.890625 213.144531 11.28125 C 215.449219 11.667969 217.734375 12.105469 220.011719 12.589844 C 222.289062 13.078125 224.546875 13.609375 226.792969 14.1875 C 229.039062 14.769531 231.265625 15.394531 233.476562 16.066406 C 235.683594 16.738281 237.875 17.457031 240.039062 18.222656 C 242.207031 18.984375 244.351562 19.792969 246.472656 20.648438 C 248.59375 21.5 250.691406 22.398438 252.757812 23.339844 C 254.828125 24.28125 256.871094 25.265625 258.882812 26.289062 C 260.894531 27.316406 262.875 28.382812 264.828125 29.492188 C 266.777344 30.601562 268.695312 31.75 270.582031 32.941406 C 272.464844 34.128906 274.3125 35.359375 276.128906 36.625 C 277.941406 37.890625 279.71875 39.195312 281.457031 40.535156 C 283.195312 41.875 284.894531 43.253906 286.550781 44.664062 C 288.210938 46.074219 289.828125 47.519531 291.40625 49 C 292.980469 50.480469 294.511719 51.988281 296 53.535156 C 297.488281 55.078125 298.933594 56.648438 300.332031 58.253906 C 301.726562 59.855469 303.078125 61.488281 304.382812 63.148438 C 305.6875 64.808594 306.941406 66.492188 308.148438 68.207031 C 309.351562 69.917969 310.507812 71.65625 311.617188 73.414062 C 312.722656 75.175781 313.777344 76.957031 314.777344 78.761719 C 315.78125 80.566406 316.734375 82.394531 317.628906 84.238281 C 318.527344 86.082031 319.371094 87.945312 320.164062 89.824219 C 320.953125 91.703125 321.691406 93.597656 322.371094 95.507812 C 323.050781 97.417969 323.675781 99.339844 324.246094 101.277344 C 324.816406 103.214844 325.332031 105.160156 325.789062 107.121094 C 326.246094 109.078125 326.648438 111.042969 326.992188 113.019531 C 327.335938 114.992188 327.625 116.972656 327.855469 118.960938 C 328.082031 120.949219 328.257812 122.9375 328.371094 124.933594 C 328.488281 126.925781 328.542969 128.921875 328.542969 130.917969 Z M 328.542969 130.917969 " fill-opacity="1" fill-rule="nonzero"/></g><path fill="#000000" d="M 181.53125 101.027344 C 180 102.5625 179.261719 104.515625 179.210938 106.625 C 179.15625 109.003906 179.421875 111.328125 179.789062 113.648438 C 180.054688 115.445312 180.582031 117.242188 181.214844 118.929688 C 182.0625 121.09375 183.011719 123.207031 184.277344 125.214844 C 185.492188 127.167969 187.023438 129.015625 188.609375 130.707031 C 190.246094 132.394531 192.148438 133.875 194.046875 135.246094 C 196.054688 136.671875 198.21875 137.625 200.4375 138.519531 C 202.179688 139.261719 203.921875 139.789062 205.71875 140.105469 C 208.148438 140.582031 210.574219 140.84375 213.058594 140.792969 C 215.328125 140.738281 217.597656 140.421875 219.816406 139.945312 C 222.035156 139.523438 224.09375 138.625 226.152344 137.78125 C 230.0625 136.144531 233.597656 133.558594 236.503906 130.496094 C 238.085938 128.859375 239.460938 127.007812 240.675781 125.109375 C 241.890625 123.207031 242.734375 121.148438 243.632812 119.089844 C 244.265625 117.609375 244.6875 116.078125 245.003906 114.496094 C 245.429688 112.539062 245.640625 110.535156 245.746094 108.527344 C 245.746094 108.476562 245.746094 108.371094 245.746094 108.316406 C 245.746094 108.261719 245.746094 108.261719 245.746094 108.210938 C 245.746094 108.210938 245.746094 108.210938 245.746094 108.15625 C 245.746094 108.105469 245.746094 108.105469 245.746094 108.050781 C 245.746094 107.894531 245.746094 107.683594 245.746094 107.523438 C 245.746094 107.523438 245.746094 107.523438 245.746094 107.472656 C 245.746094 103.140625 242.152344 99.550781 237.824219 99.550781 C 233.492188 99.550781 229.957031 103.140625 229.902344 107.472656 C 229.902344 107.734375 229.902344 108 229.902344 108.210938 C 229.902344 108.738281 229.851562 109.265625 229.796875 109.796875 C 229.535156 111.328125 229.109375 112.804688 228.582031 114.230469 C 227.949219 115.605469 227.15625 116.871094 226.3125 118.136719 C 225.363281 119.300781 224.304688 120.355469 223.144531 121.304688 C 221.875 122.203125 220.609375 122.945312 219.234375 123.578125 C 217.808594 124.105469 216.332031 124.527344 214.800781 124.792969 C 213.214844 124.949219 211.683594 124.949219 210.101562 124.792969 C 208.570312 124.527344 207.089844 124.105469 205.613281 123.578125 C 204.238281 122.945312 202.972656 122.152344 201.703125 121.304688 C 200.542969 120.355469 199.539062 119.300781 198.535156 118.136719 C 197.640625 116.871094 196.898438 115.605469 196.265625 114.230469 C 195.738281 112.804688 195.316406 111.328125 195.050781 109.796875 C 194.945312 108.738281 194.945312 107.628906 194.945312 106.519531 C 195.050781 102.191406 191.25 98.601562 187.023438 98.601562 C 185.070312 98.707031 183.011719 99.550781 181.53125 101.027344 Z M 181.53125 101.027344 " fill-opacity="1" fill-rule="nonzero"/><g clip-path="url(#8cfaa9e4ca)"><path fill="#f1a1e7" d="M 169.492188 180.183594 C 160.832031 180.183594 153.652344 187.367188 153.652344 196.027344 C 153.652344 208.488281 153.652344 262.667969 153.652344 275.128906 C 153.652344 283.789062 160.832031 290.972656 169.492188 290.972656 C 178.152344 290.972656 185.335938 283.789062 185.335938 275.128906 C 185.335938 262.667969 185.335938 208.488281 185.335938 196.027344 C 185.335938 187.367188 178.152344 180.183594 169.492188 180.183594 Z M 169.492188 180.183594 " fill-opacity="1" fill-rule="nonzero"/></g><g clip-path="url(#a7c8c4c35f)"><path fill="#f1a1e7" d="M 228.109375 180.183594 C 219.449219 180.183594 212.265625 187.367188 212.265625 196.027344 C 212.265625 208.488281 212.265625 262.667969 212.265625 275.128906 C 212.265625 283.789062 219.449219 290.972656 228.109375 290.972656 C 236.769531 290.972656 243.949219 283.789062 243.949219 275.128906 C 243.949219 262.667969 243.949219 208.488281 243.949219 196.027344 C 243.949219 187.367188 236.769531 180.183594 228.109375 180.183594 Z M 228.109375 180.183594 " fill-opacity="1" fill-rule="nonzero"/></g><path fill="#f1a1e7" d="M 316.082031 131.234375 C 320.730469 129.332031 325.269531 127.378906 329.601562 124.84375 C 334.089844 122.257812 338.207031 119.089844 342.21875 115.816406 C 345.390625 113.28125 348.292969 110.429688 351.039062 107.417969 C 354.523438 103.5625 357.691406 99.390625 360.542969 95.0625 C 362.761719 91.628906 364.714844 87.984375 366.351562 84.238281 C 368.519531 79.378906 370.472656 74.46875 371.792969 69.292969 C 373.164062 64.066406 373.902344 58.679688 374.433594 53.292969 C 374.855469 49.226562 374.855469 45.160156 374.589844 41.09375 C 374.378906 37.714844 373.851562 34.28125 373.375 30.957031 C 372.847656 29.6875 372.320312 28.421875 371.792969 27.152344 C 370.367188 24.777344 368.464844 22.875 366.089844 21.449219 C 362.445312 19.285156 357.957031 18.707031 353.890625 19.867188 C 349.929688 20.976562 346.496094 23.617188 344.4375 27.152344 C 343.910156 28.421875 343.382812 29.6875 342.855469 30.957031 C 342.167969 33.597656 342.113281 36.238281 342.75 38.929688 C 343.222656 44 343.222656 49.121094 342.695312 54.191406 C 341.851562 59.367188 340.476562 64.382812 338.578125 69.292969 C 336.464844 73.941406 333.878906 78.375 330.816406 82.546875 C 327.59375 86.507812 323.949219 90.097656 320.042969 93.320312 C 315.605469 96.539062 310.855469 99.285156 305.835938 101.503906 C 305.203125 101.769531 304.570312 102.03125 303.9375 102.296875 C 301.558594 103.722656 299.660156 105.625 298.234375 108 C 296.070312 111.644531 295.488281 116.132812 296.648438 120.199219 C 297.757812 124.15625 300.398438 127.589844 303.9375 129.648438 C 305.203125 130.179688 306.472656 130.707031 307.738281 131.234375 C 309.164062 131.605469 310.539062 131.816406 311.964844 131.816406 C 313.390625 131.816406 314.707031 131.65625 316.082031 131.234375 Z M 342.960938 40.410156 C 342.960938 40.300781 342.960938 40.25 342.90625 40.144531 C 342.960938 40.25 342.960938 40.300781 342.960938 40.410156 Z M 342.960938 40.410156 " fill-opacity="1" fill-rule="nonzero"/><path fill="#f1a1e7" d="M 58.8125 131.234375 C 60.238281 131.605469 61.609375 131.816406 63.035156 131.816406 C 64.460938 131.816406 65.835938 131.605469 67.261719 131.234375 C 68.527344 130.707031 69.796875 130.179688 71.0625 129.648438 C 74.601562 127.589844 77.242188 124.15625 78.351562 120.199219 C 79.460938 116.132812 78.878906 111.644531 76.765625 108 C 75.339844 105.625 73.441406 103.722656 71.0625 102.296875 C 70.429688 102.03125 69.796875 101.769531 69.164062 101.503906 C 64.144531 99.285156 59.394531 96.539062 54.957031 93.320312 C 50.996094 90.097656 47.40625 86.453125 44.183594 82.546875 C 41.175781 78.375 38.589844 73.992188 36.421875 69.292969 C 34.523438 64.433594 33.148438 59.367188 32.304688 54.191406 C 31.777344 49.121094 31.777344 44 32.25 38.929688 C 32.886719 36.289062 32.832031 33.648438 32.144531 30.957031 C 31.617188 29.6875 31.089844 28.421875 30.5625 27.152344 C 28.503906 23.617188 25.070312 20.976562 21.109375 19.867188 C 17.042969 18.757812 12.554688 19.339844 8.910156 21.449219 C 6.535156 22.875 4.632812 24.777344 3.207031 27.152344 C 2.679688 28.421875 2.152344 29.6875 1.625 30.957031 C 1.148438 34.335938 0.621094 37.714844 0.410156 41.09375 C 0.144531 45.160156 0.199219 49.28125 0.566406 53.292969 C 1.097656 58.679688 1.835938 64.066406 3.207031 69.292969 C 4.582031 74.46875 6.535156 79.324219 8.648438 84.238281 C 10.285156 87.984375 12.238281 91.628906 14.457031 95.0625 C 17.308594 99.390625 20.476562 103.5625 23.960938 107.417969 C 26.652344 110.429688 29.609375 113.28125 32.78125 115.816406 C 36.792969 119.035156 40.910156 122.203125 45.398438 124.84375 C 49.625 127.378906 54.164062 129.386719 58.8125 131.234375 Z M 31.933594 40.410156 C 31.933594 40.300781 31.933594 40.25 31.988281 40.144531 C 31.933594 40.25 31.933594 40.300781 31.933594 40.410156 Z M 31.933594 40.410156 " fill-opacity="1" fill-rule="nonzero"/><path fill="#000000" d="M 166.746094 107.839844 C 166.0625 103.5625 161.941406 100.554688 157.664062 101.242188 C 153.386719 101.925781 150.429688 106.097656 151.0625 110.324219 C 151.75 114.601562 155.871094 117.609375 160.148438 116.921875 C 164.425781 116.238281 167.433594 112.117188 166.746094 107.839844 Z M 166.746094 107.839844 " fill-opacity="1" fill-rule="nonzero"/><path fill="#000000" d="M 275.421875 107.894531 C 274.734375 103.617188 270.617188 100.605469 266.339844 101.292969 C 262.0625 101.980469 259.105469 106.152344 259.738281 110.375 C 260.425781 114.652344 264.542969 117.664062 268.820312 116.976562 C 273.152344 116.289062 276.109375 112.171875 275.421875 107.894531 Z M 275.421875 107.894531 " fill-opacity="1" fill-rule="nonzero"/></svg>